<?xml version="1.0" encoding="UTF-8"?>
<svg width="110px" height="110px" viewBox="0 0 110 110" version="1.1" xmlns="http://www.w3.org/2000/svg" xmlns:xlink="http://www.w3.org/1999/xlink">
    <title>Bite Bucks</title>
    <g id="Bite-Bucks" stroke="none" stroke-width="1" fill="none" fill-rule="evenodd">
        <g transform="translate(0.000000, 38.000000)" stroke="#67B0A8">
            <path d="M2.50001035,2.5 L107.500051,2.5 L107.500347,17.0844572 C104.085523,17.9906323 101.080039,19.9024921 98.8217771,22.4851511 C96.1308866,25.5625852 94.5,29.5907792 94.5,34 C94.5,38.4092208 96.1308866,42.4374148 98.8217771,45.5148489 C101.080039,48.0975079 104.085523,50.0093677 107.500347,50.9155428 L107.500347,50.9155428 L107.500051,65.5 L2.50001035,65.5 L2.50007072,50.9154319 C5.91481378,50.0091873 8.92021467,48.0972997 11.1784052,45.5146404 C13.869187,42.4372328 15.5,38.4091212 15.5,34 C15.5,29.5908788 13.869187,25.5627672 11.1784052,22.4853596 C8.92021467,19.9027003 5.91481378,17.9908127 2.50007072,17.0845681 L2.50007072,17.0845681 L2.50001035,2.5 Z" id="Combined-Shape" stroke-width="5"></path>
            <path d="M53.38,26.136 C53.38,21.672 50.356,17.448 45.796,16.44 L45.796,12.264 L44.836,12.264 L44.836,17.112 L44.74,17.112 C48.964,17.976 52.324,21.912 52.324,26.136 L53.38,26.136 Z M43.444,47.4 C46.852,47.4 49.54,44.328 49.54,41.304 C49.54,39.24 48.82,37.368 47.332,36.312 C44.932,34.536 42.484,34.872 40.084,33.96 C36.628,32.664 34.42,29.88 34.42,25.704 C34.42,21.672 37.924,17.88 41.86,17.16 L41.86,12.264 L40.852,12.264 L40.852,16.44 C36.532,17.448 33.46,21.336 33.46,25.608 C33.46,30.504 35.86,33.336 39.652,34.824 C42.052,35.784 44.26,35.304 46.804,37.032 C48.004,37.848 48.676,39.336 48.676,41.16 C48.676,44.28 46.564,46.2 43.444,46.2 C40.18,46.2 38.404,44.28 38.404,41.208 L37.348,41.208 C37.396,44.808 40.372,47.4 43.444,47.4 Z M45.796,55.176 L45.796,50.904 C50.452,49.752 53.476,45.912 53.476,41.592 C53.476,37.848 52.036,35.16 49.588,33.432 C47.236,31.608 44.404,31.272 41.476,30.456 C39.316,29.784 38.212,28.584 38.212,26.184 C38.212,23.112 40.228,21.144 43.348,21.144 C46.468,21.144 48.388,23.064 48.388,26.136 L49.396,26.136 C49.396,22.872 46.66,19.944 43.348,19.944 C39.988,19.944 37.204,22.872 37.204,26.04 C37.204,28.968 38.692,30.504 41.236,31.368 C43.972,32.28 46.66,32.28 48.964,34.104 C51.172,35.784 52.468,38.568 52.468,41.544 C52.468,45.528 48.916,49.656 44.836,50.232 L44.836,55.176 L45.796,55.176 Z M41.86,55.176 L41.86,50.232 C37.54,49.368 34.372,45.096 34.372,41.208 L33.412,41.208 C33.412,45.768 36.532,49.704 40.852,50.808 L40.852,55.176 L41.86,55.176 Z M69.556,51 C75.604,51 79.54,47.592 79.54,41.304 C79.54,37.224 78.052,34.968 75.892,33.528 C78.052,32.04 79.492,29.784 79.492,25.704 C79.492,19.416 75.604,15.96 69.556,15.96 L59.716,15.96 L59.716,51 L69.556,51 Z M69.556,50.04 L60.676,50.04 L60.676,17.016 L69.556,17.016 C75.076,17.016 78.484,20.184 78.484,25.704 C78.484,29.304 77.428,31.848 74.404,33.528 C77.428,35.16 78.58,37.752 78.58,41.304 C78.58,46.776 75.076,50.04 69.556,50.04 Z M69.556,32.04 C73.204,32.04 75.748,29.88 75.748,25.704 C75.748,22.2 73.588,19.992 69.556,19.992 L63.652,19.992 L63.652,32.04 L69.556,32.04 Z M69.556,31.032 L64.66,31.032 L64.66,21 L69.556,21 C72.868,21 74.836,22.584 74.836,25.704 C74.836,29.4 72.58,31.032 69.556,31.032 Z M69.556,47.064 C73.588,47.064 75.844,44.808 75.844,41.304 C75.844,37.128 73.204,35.064 69.556,35.064 L63.652,35.064 L63.652,47.064 L69.556,47.064 Z M69.556,46.056 L64.66,46.056 L64.66,35.976 L69.556,35.976 C72.58,35.976 74.884,37.752 74.884,41.304 C74.884,44.424 72.868,46.056 69.556,46.056 Z" id="$B" stroke-width="2" fill="#67B0A8" fill-rule="nonzero"></path>
        </g>
    </g>
</svg>