<?xml version="1.0" encoding="UTF-8"?>
<svg width="110px" height="110px" viewBox="0 0 110 110" version="1.1" xmlns="http://www.w3.org/2000/svg" xmlns:xlink="http://www.w3.org/1999/xlink">
    <title>Instagram Icon (dark) Copy</title>
    <g id="Instagram-Icon-(dark)-Copy" stroke="none" stroke-width="1" fill="none" fill-rule="evenodd">
        <g id="instagram" transform="translate(8.000000, 16.000000)">
            <rect id="Rectangle" x="0" y="0" width="94" height="94"></rect>
            <circle id="Oval" stroke="#222222" stroke-width="4" cx="47" cy="47" r="45"></circle>
            <path d="M61.7234243,23 L32.2765757,23 C27.1627469,23 23,27.1599247 23,32.2765757 L23,61.7234243 C23,66.8400753 27.1627469,71 32.2765757,71 L61.7234243,71 C66.8372531,71 71,66.8400753 71,61.7234243 L71,32.2765757 C71,27.1599247 66.8372531,23 61.7234243,23 L61.7234243,23 Z M63.9570042,29.0055325 L65,29 L65,36.9751037 L57.0277393,37 L57,29.0248963 L63.9570042,29.0055325 L63.9570042,29.0055325 Z M40.6071488,41.543678 C42.151829,39.4027059 44.6619342,38 47.4985803,38 C50.3352263,38 52.8453316,39.4027059 54.3900117,41.543678 C55.3980291,42.9407049 56,44.6500752 56,46.5014197 C56,51.1865709 52.1865709,55 47.4985803,55 C42.8134291,55 39,51.1865709 39,46.5014197 C39,44.6500752 39.6019709,42.9407049 40.6071488,41.543678 L40.6071488,41.543678 Z M66,61.4474572 C66,63.9583382 63.9715204,66 61.4768512,66 L32.5231488,66 C30.0284796,66 28,63.9583382 28,61.4474572 L28,42 L35.0483423,42 C34.437856,43.5082044 34.0965386,45.1532643 34.0965386,46.8765274 C34.0965386,54.0377051 39.8850591,59.8666356 47,59.8666356 C54.1177158,59.8666356 59.9062363,54.0377051 59.9062363,46.8765274 C59.9062363,45.1532643 59.5593691,43.5082044 58.9544326,42 L66,42 L66,61.4474572 L66,61.4474572 Z" id="Shape" fill="#222222"></path>
        </g>
    </g>
</svg>