<?xml version="1.0" encoding="UTF-8"?>
<svg width="110px" height="110px" viewBox="0 0 110 110" version="1.1" xmlns="http://www.w3.org/2000/svg" xmlns:xlink="http://www.w3.org/1999/xlink">
    <title>Map Icon Copy</title>
    <g id="Map-Icon-Copy" stroke="none" stroke-width="1" fill="none" fill-rule="evenodd">
        <g id="Group" transform="translate(0.000000, 21.000000)" fill="#000000">
            <path d="M72.8320312,0.949545589 L37.4230966,14.09459 L0.402832031,0.356333291 L0.402832031,74.3460853 L36.5771484,87.767514 L36.85913,87.8753708 L37.7252202,87.8686284 L72.8253178,74.9392976 L109.570312,88.5764398 L109.570312,14.5934284 L72.8320312,0.949545589 Z M35.7379155,83.9857843 L3.64563031,72.0743523 L3.64563031,5.0278797 L35.7379155,16.9393134 L35.7379155,83.9857843 Z M38.9807137,16.885385 L71.2072762,5.02113909 L71.2072762,72.0743523 L38.9807137,84.0329721 L38.9807137,16.885385 Z M106.327514,83.9048934 L74.4500728,72.0676099 L74.4500728,5.0278797 L106.327514,16.8584208 L106.327514,83.9048934 Z" id="Shape" stroke="#000000" stroke-width="0.2"></path>
            <path d="M6.17004437,59.7989028 L6.13647375,57.1024833 C6.98242187,57.0957409 7.80822797,57.0081077 8.56689453,56.8463225 L9.1174325,59.4888137 C8.18420453,59.6843037 7.19055219,59.7854198 6.17004437,59.7989028 L6.17004437,59.7989028 Z M11.9976811,58.511362 L10.8160405,56.0913251 C11.5209961,55.7407905 12.1520988,55.3026228 12.7026367,54.7835625 L14.5489506,56.7384658 C13.8037109,57.4395348 12.9443359,58.0394877 11.9976811,58.511362 L11.9976811,58.511362 Z M16.4489738,54.2914646 L14.1125497,52.9499972 C14.4885263,52.2961141 14.7973633,51.547859 15.0390625,50.7389332 L17.6171875,51.5074119 C17.3150639,52.51857 16.9256588,53.4555745 16.4489738,54.2914646 L16.4489738,54.2914646 Z M18.3624272,48.9390727 L15.8178711,48.0829591 C16.1267081,47.1459528 16.4758309,46.2628767 16.8518075,45.4269849 L19.3023686,46.5325187 C18.9599609,47.2875162 18.6444087,48.096442 18.3624272,48.9390727 L18.3624272,48.9390727 Z M94.8803711,48.3458604 C94.5983878,47.4762638 94.3164063,46.5999283 94.0411381,45.7235928 L96.6058345,44.9281482 C96.8743892,45.7775212 97.1496591,46.6403755 97.4316406,47.4964874 L94.8803711,48.3458604 Z M61.4587394,47.2605502 L60.5523686,44.7191752 C61.2304688,44.4764975 62.0227059,44.1192223 62.8955078,43.6877952 L64.0838619,46.1010916 C63.1036381,46.5864471 62.2174077,46.9841677 61.4587394,47.2605502 L61.4587394,47.2605502 Z M57.7862553,47.1998812 C57.2692862,46.916758 56.3629155,46.6066689 55.4833984,46.3168051 L56.33606,43.7552048 C57.5512695,44.1664101 58.4039311,44.4630163 59.0820312,44.8337726 L57.7862553,47.1998812 Z M52.878418,45.4067631 C52.0660405,45.1034146 51.1932369,44.7461394 50.2868644,44.3281953 L51.4147941,41.8811941 C52.2607422,42.2721758 53.0664062,42.6024868 53.8183594,42.88561 L52.878418,45.4067631 Z M66.5411381,44.8202914 L65.2587891,42.4541828 C66.0174556,42.0362387 66.8096928,41.5980692 67.6086434,41.1396796 L68.9312748,43.4855629 C68.1188956,43.9439559 67.3132316,44.4023455 66.5411381,44.8202914 L66.5411381,44.8202914 Z M20.4705806,44.2405604 L18.1475834,42.88561 C18.6511222,42.0227557 19.1748047,41.2205705 19.7119141,40.4857966 L21.8737784,42.0834247 C21.39038,42.7440484 20.9204102,43.4586004 20.4705806,44.2405604 L20.4705806,44.2405604 Z M93.2421875,43.1080641 L92.4768075,40.4857966 L95.0549325,39.7307991 L95.8203125,42.3395854 L93.2421875,43.1080641 Z M47.7691655,43.0136903 C46.9970703,42.555299 46.1981197,42.0429793 45.3924556,41.46325 L46.9567862,39.2724078 C47.6885991,39.8049511 48.4136967,40.270083 49.1186523,40.6812866 L47.7691655,43.0136903 Z M71.2945561,42.1306125 L69.9584961,39.7914698 L72.3284908,38.4432601 L73.6511222,40.7891433 L71.2945561,42.1306125 Z M23.4985352,40.1015572 L21.5313725,38.2679919 C22.1960441,37.5534399 22.9010014,36.8793367 23.6260991,36.2726415 L25.3381356,38.3488845 C24.7406002,38.8544636 24.1162109,39.434193 23.4985352,40.1015572 L23.4985352,40.1015572 Z M43.1701669,39.6903537 C42.9150391,39.4678995 42.6599113,39.238703 42.4114986,39.0027658 C41.9952397,38.6185265 41.5856925,38.2679919 41.1828622,37.9444216 L42.8411861,35.8277314 C43.2977291,36.1917489 43.7677006,36.5894712 44.2443856,37.0343796 C44.4726563,37.2500931 44.7009269,37.4590661 44.9291992,37.6612967 L43.1701669,39.6903537 Z M76.0009766,39.4813807 L74.7253409,37.1085315 C75.645142,36.6096948 76.484375,36.1782677 77.2363281,35.8412144 L78.3441158,38.2949561 C77.6458736,38.6117859 76.8536381,39.0229894 76.0009766,39.4813807 L76.0009766,39.4813807 Z M91.7584233,38.133171 C91.496582,37.6141106 91.0668945,37.2298696 90.4425053,36.9467464 L91.5435795,34.486264 C92.7252202,35.0255479 93.6047372,35.8344737 94.14856,36.8995586 L91.7584233,38.133171 Z M80.6939702,37.4590661 L79.9890128,34.8570204 C80.8349609,34.6278256 81.7614737,34.4053714 82.7215572,34.216622 L83.2318111,36.8591132 C82.3388672,37.0411219 81.4794922,37.2433525 80.6939702,37.4590661 L80.6939702,37.4590661 Z M27.3657227,36.9265228 L26.0363778,34.5806378 C26.7883309,34.1559513 27.8894034,33.6234097 28.8830575,33.5290342 L29.4268803,36.1782677 L29.124755,36.2187131 C28.8293466,36.2456773 28.2049556,36.4479096 27.3657227,36.9265228 L27.3657227,36.9265228 Z M39.1217045,36.5759883 C38.3898934,36.1782677 37.6379403,35.8816598 36.8994141,35.6794292 L37.5976562,33.0773835 C38.5375977,33.3335442 39.4775391,33.7110429 40.390625,34.2031391 L39.1217045,36.5759883 Z M85.7763672,36.4883551 L85.534668,33.8054185 C86.1389169,33.7514901 86.7565909,33.7380071 87.3205575,33.7245242 C87.7099609,33.7245242 88.0993644,33.7380071 88.4686275,33.7649713 L88.2672123,36.4546502 C87.9449467,36.427686 87.6092525,36.4344267 87.2869869,36.4209437 C86.7901616,36.4142031 86.2866211,36.4411673 85.7763672,36.4883551 L85.7763672,36.4883551 Z M31.6223153,32.9493048 C32.6495366,32.7538131 33.5424805,32.6594393 34.4421378,32.6594393 L34.5764169,34.0076491 L34.5361328,35.3558588 C33.7170419,35.3491182 32.9852291,35.4300108 32.1392827,35.5985366 L31.6223153,32.9493048 Z" id="Shape"></path>
            <polygon id="Shape" points="100.81543 51.8512058 98.9154048 49.9434885 95.6188956 53.2600846 92.3156747 49.9434885 90.4089347 51.8512058 93.7188725 55.1678018 90.4089347 58.4843978 92.3156747 60.3921151 95.6188956 57.0755173 98.9154048 60.3921151 100.81543 58.4843978 97.512207 55.1678018"></polygon>
        </g>
    </g>
</svg>