<?xml version="1.0" encoding="UTF-8"?>
<svg width="580px" height="111px" viewBox="0 0 580 111" version="1.1" xmlns="http://www.w3.org/2000/svg" xmlns:xlink="http://www.w3.org/1999/xlink">
    <!-- Generator: Sketch 53.2 (72643) - https://sketchapp.com -->
    <title>Producer Utility Betl  Copy</title>
    <desc>Created with Sketch.</desc>
    <defs>
        <path d="M15.732233,40.732233 C16.201074,40.2633921 16.8369588,40 17.5,40 L47.5,40 C48.8807119,40 50,38.8807119 50,37.5 L50,12.5 C50,11.1192881 48.8807119,10 47.5,10 L12.5,10 C11.1192881,10 10,11.1192881 10,12.5 L10,46.4644661 L15.732233,40.732233 Z M18.5355339,45 L9.26776695,54.267767 C7.6928548,55.8426791 5,54.7272621 5,52.5 L5,12.5 C5,8.35786438 8.35786438,5 12.5,5 L47.5,5 C51.6421356,5 55,8.35786438 55,12.5 L55,37.5 C55,41.6421356 51.6421356,45 47.5,45 L18.5355339,45 Z" id="path-1"></path>
        <path d="M42.5,7.5 L45,7.5 C49.1421356,7.5 52.5,10.8578644 52.5,15 L52.5,50 C52.5,54.1421356 49.1421356,57.5 45,57.5 L15,57.5 C10.8578644,57.5 7.5,54.1421356 7.5,50 L7.5,15 C7.5,10.8578644 10.8578644,7.5 15,7.5 L17.5,7.5 C17.5,4.73857625 19.7385763,2.5 22.5,2.5 L37.5,2.5 C40.2614237,2.5 42.5,4.73857625 42.5,7.5 Z M17.5,12.5 L15,12.5 C13.6192881,12.5 12.5,13.6192881 12.5,15 L12.5,50 C12.5,51.3807119 13.6192881,52.5 15,52.5 L45,52.5 C46.3807119,52.5 47.5,51.3807119 47.5,50 L47.5,15 C47.5,13.6192881 46.3807119,12.5 45,12.5 L42.5,12.5 C42.5,15.2614237 40.2614237,17.5 37.5,17.5 L22.5,17.5 C19.7385763,17.5 17.5,15.2614237 17.5,12.5 Z M22.5,7.5 L22.5,12.5 L37.5,12.5 L37.5,7.5 L22.5,7.5 Z" id="path-3"></path>
    </defs>
    <g id="Page-1" stroke="none" stroke-width="1" fill="none" fill-rule="evenodd">
        <g id="Artboard" transform="translate(-480.000000, -416.000000)">
            <g id="Producer-Utility-Betl--Copy" transform="translate(480.000000, 416.000000)">
                <rect id="Rectangle" stroke="#979797" fill="#000000" x="0.5" y="0.5" width="579" height="110"></rect>
                <g id="Group-5" transform="translate(493.000000, 17.000000)">
                    <g id="message-square">
                        <mask id="mask-2" fill="white">
                            <use xlink:href="#path-1"></use>
                        </mask>
                        <use id="Shape" fill="#000000" fill-rule="nonzero" xlink:href="#path-1"></use>
                        <g id="COLOR/-white" mask="url(#mask-2)" fill="#FFFFFF" fill-rule="evenodd">
                            <rect id="Rectangle" x="0" y="0" width="60" height="60"></rect>
                        </g>
                    </g>
                    <text id="Update" font-family="Chivo-Regular, Chivo" font-size="16" font-weight="normal" letter-spacing="0.176000006" fill="#FFFFFF">
                        <tspan x="3" y="79">Update</tspan>
                    </text>
                </g>
                <g id="Group-4" transform="translate(255.000000, 16.000000)" fill="#FFFFFF">
                    <g id="White-Scan-">
                        <path d="M7.32280889,15.2802933 C7.32280889,17.3304533 6.07167556,18.4659467 3.67982222,18.4659467 C1.32474222,18.4659467 -4.08562073e-14,17.3304533 -4.08562073e-14,15.2802933 L-4.08562073e-14,10.2824267 C-4.08562073e-14,3.53261333 4.15818667,7.28306304e-14 12.1065778,7.28306304e-14 L21.0485022,7.28306304e-14 C23.4403867,7.28306304e-14 24.7650978,1.13549333 24.7650978,3.15413333 C24.7650978,5.17274667 23.4403867,6.30824 21.0485022,6.30824 L12.5849422,6.30824 C9.19952444,6.30824 7.32280889,7.82221333 7.32280889,10.8501867 L7.32280889,15.2802933 Z M68.4444444,15.2802933 C68.4444444,17.3304533 67.1564444,18.4659467 64.7646222,18.4659467 C62.4095111,18.4659467 61.1215111,17.3304533 61.1215111,15.2802933 L61.1215111,10.8501867 C61.1215111,7.82221333 59.2081778,6.30824 55.8593778,6.30824 L47.3959111,6.30824 C45.0040889,6.30824 43.6793778,5.17274667 43.6793778,3.15413333 C43.6793778,1.13549333 45.0040889,7.28306304e-14 47.3959111,7.28306304e-14 L56.3378667,7.28306304e-14 C64.3231556,7.28306304e-14 68.4444444,3.53261333 68.4444444,10.2824267 L68.4444444,15.2802933 Z M56.3378667,58.6666667 L47.3959111,58.6666667 C45.0040889,58.6666667 43.6793778,57.5626667 43.6793778,55.544 C43.6793778,53.4938667 45.0040889,52.3898667 47.3959111,52.3898667 L55.8593778,52.3898667 C59.2081778,52.3898667 61.1215111,50.876 61.1215111,47.8165333 L61.1215111,43.3864 C61.1215111,41.3677333 62.3728,40.2008 64.7646222,40.2008 C67.1197333,40.2008 68.4444444,41.3362667 68.4444444,43.3864 L68.4444444,48.3842667 C68.4444444,55.1341333 64.3231556,58.6666667 56.3378667,58.6666667 Z M21.0485022,58.6666667 L12.1065778,58.6666667 C4.15818667,58.6666667 -4.08562073e-14,55.1656 -4.08562073e-14,48.3842667 L-4.08562073e-14,43.3864 C-4.08562073e-14,41.3362667 1.28793778,40.2008 3.67982222,40.2008 C6.03487111,40.2008 7.32280889,41.3362667 7.32280889,43.3864 L7.32280889,47.8165333 C7.32280889,50.876 9.19952444,52.3898667 12.5849422,52.3898667 L21.0485022,52.3898667 C23.4403867,52.3898667 24.7650978,53.4938667 24.7650978,55.544 C24.7650978,57.5626667 23.4403867,58.6666667 21.0485022,58.6666667 Z M3.57777778,26.6666667 C1.60181778,26.6666667 -4.08562073e-14,28.0397333 -4.08562073e-14,29.7333333 C-4.08562073e-14,31.4269333 1.60181778,32.8 3.57777778,32.8 L64.8666667,32.8 C66.8425333,32.8 68.4444444,31.4269333 68.4444444,29.7333333 C68.4444444,28.0397333 66.8425333,26.6666667 64.8666667,26.6666667 L3.57777778,26.6666667 Z" id="scan"></path>
                    </g>
                    <text id="QR-Scan" font-family="Chivo-Regular, Chivo" font-size="16" font-weight="normal" letter-spacing="0.176000006">
                        <tspan x="2" y="80">QR Scan</tspan>
                    </text>
                </g>
                <g id="Group" transform="translate(24.000000, 16.000000)" fill="#FFFFFF">
                    <path d="M29.730021,56.3974782 L29.730021,38.3848694 L46.2516283,38.3848694 L46.2516283,56.3974782 C46.2516283,58.3788652 48.1103091,60 50.3820301,60 L62.7732356,60 C65.0449566,60 66.9036375,58.3788652 66.9036375,56.3974782 L66.9036375,31.1798259 L73.9253206,31.1798259 C75.8253054,31.1798259 76.7339938,29.1263885 75.2883532,28.0456319 L40.7581939,0.91864305 C39.1886412,-0.30621435 36.7930081,-0.30621435 35.2234554,0.91864305 L0.693296102,28.0456319 C-0.711040521,29.1263885 0.156343864,31.1798259 2.05632871,31.1798259 L9.07801182,31.1798259 L9.07801182,56.3974782 C9.07801182,58.3788652 10.9366926,60 13.2084137,60 L25.5996192,60 C27.8713402,60 29.730021,58.3788652 29.730021,56.3974782 Z" id="home"></path>
                    <text id="Home" font-family="Chivo-Regular, Chivo" font-size="16" font-weight="normal" letter-spacing="0.176000006">
                        <tspan x="16.128" y="80">Home</tspan>
                    </text>
                </g>
                <g id="Group-2" transform="translate(134.000000, 17.000000)">
                    <g id="clipboard" transform="translate(9.000000, 0.000000)">
                        <mask id="mask-4" fill="white">
                            <use xlink:href="#path-3"></use>
                        </mask>
                        <use id="Combined-Shape" fill="#000000" fill-rule="nonzero" xlink:href="#path-3"></use>
                        <g id="COLOR/-white" mask="url(#mask-4)" fill="#FFFFFF" fill-rule="evenodd">
                            <rect id="Rectangle" x="0" y="0" width="60" height="60"></rect>
                        </g>
                    </g>
                    <text id="Guest-List" font-family="Chivo-Regular, Chivo" font-size="16" font-weight="normal" letter-spacing="0.176000006" fill="#FFFFFF">
                        <tspan x="0" y="79">Guest List</tspan>
                    </text>
                </g>
                <g id="Group-3" transform="translate(379.000000, 17.000000)" fill="#FFFFFF">
                    <path d="M59.4,30 C59.4,27.15 60.819,24.675 62.898,23.4 C64.878,22.1625 66,19.6125 66,17.025 L66,7.5 C66,3.375 63.03,0 59.4,0 L6.6,0 C2.97,0 0.033,3.3375 0.033,7.4625 L0.033,17.025 C0.033,19.6125 1.122,22.1625 3.135,23.3625 C5.214,24.675 6.6,27.15 6.6,30 C6.6,32.85 5.181,35.3625 3.102,36.6 C1.122,37.8375 0,40.3875 0,42.975 L0,52.5 C0,56.625 2.97,60 6.6,60 L59.4,60 C63.03,60 66,56.625 66,52.5 L66,42.975 C66,40.3875 64.878,37.8375 62.898,36.6 C60.819,35.325 59.4,32.85 59.4,30 Z M41.5327525,45.5555372 L33.0212424,39.6194435 L24.5097323,45.5926377 C23.2159828,46.4830518 21.5477268,45.1845313 21.9562793,43.5521055 L24.5097323,32.8671369 L16.6791431,25.8922268 C15.4875317,24.8163098 16.1003604,22.7015765 17.6664782,22.5902747 L27.7441062,21.9595648 L31.4210785,11.7569037 C31.9998612,10.1986791 34.0426236,10.1986791 34.5873603,11.7569037 L38.2643326,21.9966653 L48.3419606,22.6273753 C49.8740324,22.7386771 50.5209071,24.8534104 49.3292957,25.9293274 L41.4987065,32.9042375 L44.0862055,43.515005 C44.494758,45.1845313 42.826502,46.4830518 41.5327525,45.5555372 Z" id="ticket"></path>
                    <text id="Sell" font-family="Chivo-Regular, Chivo" font-size="16" font-weight="normal" letter-spacing="0.176000006">
                        <tspan x="17" y="79">Sell </tspan>
                    </text>
                </g>
            </g>
        </g>
    </g>
</svg>