<?xml version="1.0" encoding="UTF-8"?>
<svg width="580px" height="111px" viewBox="0 0 580 111" version="1.1" xmlns="http://www.w3.org/2000/svg" xmlns:xlink="http://www.w3.org/1999/xlink">
    <!-- Generator: Sketch 53.2 (72643) - https://sketchapp.com -->
    <title>Producer Utility Betl  Copy 2</title>
    <desc>Created with Sketch.</desc>
    <defs>
        <path d="M15.732233,40.732233 C16.201074,40.2633921 16.8369588,40 17.5,40 L47.5,40 C48.8807119,40 50,38.8807119 50,37.5 L50,12.5 C50,11.1192881 48.8807119,10 47.5,10 L12.5,10 C11.1192881,10 10,11.1192881 10,12.5 L10,46.4644661 L15.732233,40.732233 Z M18.5355339,45 L9.26776695,54.267767 C7.6928548,55.8426791 5,54.7272621 5,52.5 L5,12.5 C5,8.35786438 8.35786438,5 12.5,5 L47.5,5 C51.6421356,5 55,8.35786438 55,12.5 L55,37.5 C55,41.6421356 51.6421356,45 47.5,45 L18.5355339,45 Z" id="path-1"></path>
        <path d="M42.5,7.5 L45,7.5 C49.1421356,7.5 52.5,10.8578644 52.5,15 L52.5,50 C52.5,54.1421356 49.1421356,57.5 45,57.5 L15,57.5 C10.8578644,57.5 7.5,54.1421356 7.5,50 L7.5,15 C7.5,10.8578644 10.8578644,7.5 15,7.5 L17.5,7.5 C17.5,4.73857625 19.7385763,2.5 22.5,2.5 L37.5,2.5 C40.2614237,2.5 42.5,4.73857625 42.5,7.5 Z M17.5,12.5 L15,12.5 C13.6192881,12.5 12.5,13.6192881 12.5,15 L12.5,50 C12.5,51.3807119 13.6192881,52.5 15,52.5 L45,52.5 C46.3807119,52.5 47.5,51.3807119 47.5,50 L47.5,15 C47.5,13.6192881 46.3807119,12.5 45,12.5 L42.5,12.5 C42.5,15.2614237 40.2614237,17.5 37.5,17.5 L22.5,17.5 C19.7385763,17.5 17.5,15.2614237 17.5,12.5 Z M22.5,7.5 L22.5,12.5 L37.5,12.5 L37.5,7.5 L22.5,7.5 Z" id="path-3"></path>
    </defs>
    <g id="Page-1" stroke="none" stroke-width="1" fill="none" fill-rule="evenodd">
        <g id="Artboard" transform="translate(-481.000000, -574.000000)">
            <g id="Producer-Utility-Betl--Copy-2" transform="translate(481.000000, 574.000000)">
                <rect id="Rectangle" stroke="#979797" fill="#000000" x="0.5" y="0.5" width="579" height="110"></rect>
                <g id="Group-5" transform="translate(493.000000, 26.000000)">
                    <g id="message-square">
                        <mask id="mask-2" fill="white">
                            <use xlink:href="#path-1"></use>
                        </mask>
                        <use id="Shape" fill="#000000" fill-rule="nonzero" xlink:href="#path-1"></use>
                        <g id="COLOR/-white" mask="url(#mask-2)" fill="#FFFFFF" fill-rule="evenodd">
                            <rect id="Rectangle" x="0" y="0" width="60" height="60"></rect>
                        </g>
                    </g>
                </g>
                <g id="Group" transform="translate(24.000000, 26.000000)" fill="#FFFFFF">
                    <path d="M29.730021,56.3974782 L29.730021,38.3848694 L46.2516283,38.3848694 L46.2516283,56.3974782 C46.2516283,58.3788652 48.1103091,60 50.3820301,60 L62.7732356,60 C65.0449566,60 66.9036375,58.3788652 66.9036375,56.3974782 L66.9036375,31.1798259 L73.9253206,31.1798259 C75.8253054,31.1798259 76.7339938,29.1263885 75.2883532,28.0456319 L40.7581939,0.91864305 C39.1886412,-0.30621435 36.7930081,-0.30621435 35.2234554,0.91864305 L0.693296102,28.0456319 C-0.711040521,29.1263885 0.156343864,31.1798259 2.05632871,31.1798259 L9.07801182,31.1798259 L9.07801182,56.3974782 C9.07801182,58.3788652 10.9366926,60 13.2084137,60 L25.5996192,60 C27.8713402,60 29.730021,58.3788652 29.730021,56.3974782 Z" id="home"></path>
                </g>
                <g id="Group-2" transform="translate(143.000000, 26.000000)">
                    <g id="clipboard">
                        <mask id="mask-4" fill="white">
                            <use xlink:href="#path-3"></use>
                        </mask>
                        <use id="Combined-Shape" fill="#000000" fill-rule="nonzero" xlink:href="#path-3"></use>
                        <g id="COLOR/-white" mask="url(#mask-4)" fill="#FFFFFF" fill-rule="evenodd">
                            <rect id="Rectangle" x="0" y="0" width="60" height="60"></rect>
                        </g>
                    </g>
                </g>
                <g id="Group-3" transform="translate(379.000000, 26.000000)" fill="#FFFFFF">
                    <path d="M59.4,30 C59.4,27.15 60.819,24.675 62.898,23.4 C64.878,22.1625 66,19.6125 66,17.025 L66,7.5 C66,3.375 63.03,0 59.4,0 L6.6,0 C2.97,0 0.033,3.3375 0.033,7.4625 L0.033,17.025 C0.033,19.6125 1.122,22.1625 3.135,23.3625 C5.214,24.675 6.6,27.15 6.6,30 C6.6,32.85 5.181,35.3625 3.102,36.6 C1.122,37.8375 0,40.3875 0,42.975 L0,52.5 C0,56.625 2.97,60 6.6,60 L59.4,60 C63.03,60 66,56.625 66,52.5 L66,42.975 C66,40.3875 64.878,37.8375 62.898,36.6 C60.819,35.325 59.4,32.85 59.4,30 Z M41.5327525,45.5555372 L33.0212424,39.6194435 L24.5097323,45.5926377 C23.2159828,46.4830518 21.5477268,45.1845313 21.9562793,43.5521055 L24.5097323,32.8671369 L16.6791431,25.8922268 C15.4875317,24.8163098 16.1003604,22.7015765 17.6664782,22.5902747 L27.7441062,21.9595648 L31.4210785,11.7569037 C31.9998612,10.1986791 34.0426236,10.1986791 34.5873603,11.7569037 L38.2643326,21.9966653 L48.3419606,22.6273753 C49.8740324,22.7386771 50.5209071,24.8534104 49.3292957,25.9293274 L41.4987065,32.9042375 L44.0862055,43.515005 C44.494758,45.1845313 42.826502,46.4830518 41.5327525,45.5555372 Z" id="ticket"></path>
                </g>
                <path d="M289.500615,35.7289616 L295.583436,35.7289616 L295.583436,43.3329231 L298.625461,43.3329231 L298.625461,22.0408463 L295.583436,22.0408463 L295.583436,32.6856541 L290.199592,32.6856541 L290.199592,29.6448078 L284.116771,29.6448078 L284.116771,32.6868847 L289.500615,32.6868847 L289.500615,35.7289616 Z M319.915949,25.0829231 L307.749077,25.0829231 L307.749077,37.2487694 L319.915949,37.2487694 L319.915949,25.0829231 Z M289.500615,40.2908463 L290.199592,40.2908463 L290.199592,37.2487694 L284.116771,37.2487694 L284.116771,40.2908463 L283.417795,40.2908463 L283.417795,22.0408463 L280.375769,22.0408463 L280.375769,43.3316925 L289.500615,43.3316925 L289.500615,40.2908463 Z M291.927344,25.6908463 L285.844524,25.6908463 L285.844524,28.7329231 L291.927344,28.7329231 L291.927344,25.6908463 Z M304.707051,46.3737694 L304.707051,49.4146156 L298.625461,49.4146156 L298.625461,52.4566925 L310.791103,52.4566925 L310.791103,46.3737694 L304.707051,46.3737694 Z M325.998769,64.6237694 L325.998769,61.5816925 L319.915949,61.5816925 L319.915949,64.6237694 L325.998769,64.6237694 Z M322.957974,58.5408463 L322.957974,55.4987694 L326,55.4987694 L326,49.4158463 L322.957974,49.4158463 L322.957974,46.375 L313.833128,46.375 L313.833128,52.4579231 L319.915949,52.4579231 L319.915949,55.4987694 L316.873923,55.4987694 L316.873923,58.5408463 L313.831898,58.5408463 L313.831898,52.4579231 L310.789872,52.4579231 L310.789872,64.625 L316.872693,64.625 L316.872693,61.5829231 L319.914718,61.5829231 L319.914718,58.5408463 L322.957974,58.5408463 Z M307.749077,70.7066925 L313.831898,70.7066925 L313.831898,67.6646156 L307.749077,67.6646156 L307.749077,70.7066925 Z M325.998769,19 L301.667487,19 L301.667487,43.3329231 L325.998769,43.3329231 L325.998769,19 L325.998769,19 Z M322.957974,40.2908463 L304.708282,40.2908463 L304.708282,22.0408463 L322.957974,22.0408463 L322.957974,40.2908463 Z M301.667487,85.9146156 L307.749077,85.9146156 L307.749077,82.8725388 L301.667487,82.8725388 L301.667487,85.9146156 L301.667487,85.9146156 Z M259.085282,37.2487694 L271.250923,37.2487694 L271.250923,25.0829231 L259.085282,25.0829231 L259.085282,37.2487694 L259.085282,37.2487694 Z M289.500615,82.8725388 L283.417795,82.8725388 L283.417795,88.9554619 L289.500615,88.9554619 L289.500615,91.9975388 L295.583436,91.9975388 L295.583436,88.9554619 L298.625461,88.9554619 L298.625461,91.9975388 L304.707051,91.9975388 L304.707051,88.9554619 L301.666256,88.9554619 L301.666256,85.913385 L289.500615,85.913385 L289.500615,82.8725388 Z M325.998769,91.9975388 L325.998769,79.8304619 L319.915949,79.8304619 L319.915949,85.913385 L316.873923,85.913385 L316.873923,82.8713082 L313.831898,82.8713082 L313.831898,79.8292313 L319.914718,79.8292313 L319.914718,73.7487694 L322.956744,73.7487694 L322.956744,70.7066925 L325.998769,70.7066925 L325.998769,67.6646156 L319.915949,67.6646156 L319.915949,70.7066925 L316.873923,70.7066925 L316.873923,73.7487694 L310.791103,73.7487694 L310.791103,76.7896156 L307.749077,76.7896156 L307.749077,73.7487694 L295.583436,73.7487694 L295.583436,70.7066925 L298.625461,70.7066925 L298.625461,67.6646156 L301.667487,67.6646156 L301.667487,64.6225388 L304.708282,64.6225388 L304.708282,58.5396156 L301.667487,58.5396156 L301.667487,55.4987694 L292.542641,55.4987694 L292.542641,61.5816925 L289.500615,61.5816925 L289.500615,73.7487694 L286.45859,73.7487694 L286.45859,67.6658463 L280.375769,67.6658463 L280.375769,73.7487694 L283.417795,73.7487694 L283.417795,79.8304619 L292.542641,79.8304619 L292.542641,82.8725388 L301.667487,82.8725388 L301.667487,76.7896156 L304.708282,76.7896156 L304.708282,79.8316925 L307.750308,79.8316925 L307.750308,82.8737694 L310.792333,82.8737694 L310.792333,85.9158463 L313.834359,85.9158463 L313.834359,88.9579231 L316.876384,88.9579231 L316.876384,92 L325.998769,92 L325.998769,91.9975388 Z M292.542641,64.6237694 L295.584666,64.6237694 L295.584666,67.6658463 L292.542641,67.6658463 L292.542641,64.6237694 Z M295.583436,52.4566925 L295.583436,46.3737694 L271.250923,46.3737694 L271.250923,49.4146156 L268.208897,49.4146156 L268.208897,46.3737694 L259.084051,46.3737694 L259.084051,52.4566925 L265.166872,52.4566925 L265.166872,55.4987694 L262.124846,55.4987694 L262.124846,58.5408463 L259.082821,58.5408463 L259.082821,52.4579231 L253,52.4579231 L253,64.625 L262.124846,64.625 L262.124846,61.5829231 L265.166872,61.5829231 L265.166872,58.5408463 L268.207667,58.5408463 L268.207667,55.4987694 L271.249692,55.4987694 L271.249692,52.4566925 L274.291718,52.4566925 L274.291718,49.4146156 L277.333744,49.4146156 L277.333744,55.4987694 L274.291718,55.4987694 L274.291718,58.5408463 L280.374539,58.5408463 L280.374539,52.4579231 L283.416564,52.4579231 L283.416564,61.5829231 L268.210128,61.5829231 L268.210128,64.625 L286.45982,64.625 L286.45982,61.5829231 L289.500615,61.5829231 L289.500615,52.4579231 L295.583436,52.4579231 L295.583436,52.4566925 Z M253.002461,91.9975388 L277.334974,91.9975388 L277.334974,67.6658463 L253.002461,67.6658463 L253.002461,91.9975388 Z M256.043256,70.7066925 L274.292949,70.7066925 L274.292949,88.9554619 L256.043256,88.9554619 L256.043256,70.7066925 L256.043256,70.7066925 Z M253.002461,43.3329231 L277.334974,43.3329231 L277.334974,19 L253.002461,19 L253.002461,43.3329231 Z M256.043256,22.0408463 L274.292949,22.0408463 L274.292949,40.2908463 L256.043256,40.2908463 L256.043256,22.0408463 L256.043256,22.0408463 Z M259.085282,85.9146156 L271.250923,85.9146156 L271.250923,73.7487694 L259.085282,73.7487694 L259.085282,85.9146156 L259.085282,85.9146156 Z" id="Shape" fill="#FFFFFF" fill-rule="nonzero"></path>
            </g>
        </g>
    </g>
</svg>